<?xml version="1.0" encoding="UTF-8"?>
<svg fill="none" viewBox="0 0 42 42" xmlns="http://www.w3.org/2000/svg">
<path d="m21 41-17.13-19.414c-0.96407-1.1837-1.713-2.5709-2.204-4.0826-0.49101-1.5117-0.71449-3.1182-0.65768-4.7277 0.11473-3.2507 1.3642-6.3166 3.4734-8.5232s4.9056-3.3732 7.7739-3.2432c2.8682 0.13003 5.5734 1.546 7.5204 3.9366 0.3622 0.27425 0.788 0.42063 1.2236 0.42063s0.8614-0.14638 1.2235-0.42063c1.9471-2.3905 4.6523-3.8065 7.5205-3.9366 2.8683-0.13002 5.6646 1.0366 7.7739 3.2432s3.3587 5.2725 3.4734 8.5232c0.1148 3.2506-0.9146 6.4198-2.8616 8.8103l-17.13 19.414z" stroke="#F44336" stroke-linecap="round" stroke-linejoin="round" stroke-width="2"/>
</svg>
