<?xml version="1.0" encoding="UTF-8"?>
<svg fill="none" viewBox="0 0 21 18" xmlns="http://www.w3.org/2000/svg">
<path d="m10.5 18-8.9931-8.7361c-0.50614-0.53265-0.89932-1.1569-1.1571-1.8372-0.25778-0.68025-0.37511-1.4032-0.34528-2.1275 0.060233-1.4628 0.71619-2.8424 1.8236-3.8354 1.1074-0.99298 2.5755-1.518 4.0813-1.4594s2.926 0.69572 3.9482 1.7714c0.19016 0.12342 0.41366 0.18929 0.64236 0.18929s0.4522-0.06587 0.6424-0.18929c1.0222-1.0757 2.4424-1.7129 3.9482-1.7714s2.9739 0.46647 4.0813 1.4594c1.1074 0.99298 1.7633 2.3726 1.8236 3.8354 0.0602 1.4628-0.4802 2.8889-1.5024 3.9647l-8.9931 8.7361z" fill="#F25022"/>
</svg>
