<?xml version="1.0" encoding="UTF-8"?>
<svg fill="none" viewBox="0 0 21 20" xmlns="http://www.w3.org/2000/svg">
<path d="m11.391 0.53312 8.4525 8.1554c0.1385 0.13443 0.2337 0.30773 0.2731 0.49737s0.0212 0.38683-0.0522 0.56592c-0.0734 0.17908-0.1986 0.33175-0.3594 0.43825-0.1607 0.1064-0.3496 0.1616-0.5419 0.1585h-0.9584v7.7211c0 0.512-0.2019 1.0029-0.5613 1.3649-0.3595 0.362-0.847 0.5654-1.3553 0.5654h-3.3447v-5.7907c0-0.256-0.1009-0.5015-0.2807-0.6825-0.1797-0.181-0.4234-0.2826-0.6776-0.2826h-3.8333c-0.25417 0-0.49792 0.1016-0.67764 0.2826-0.17973 0.181-0.28069 0.4265-0.28069 0.6825v5.7907h-3.3637c-0.50833 0-0.99584-0.2034-1.3553-0.5654-0.35945-0.362-0.56138-0.8529-0.56138-1.3649v-7.7211h-0.95834c-0.19072-8e-4 -0.37687-0.0588-0.53464-0.1667-0.15777-0.108-0.27998-0.26083-0.35099-0.43909-0.071009-0.17827-0.087588-0.37382-0.047616-0.56162 0.039972-0.18781 0.13468-0.35934 0.272-0.49263l8.4525-8.1554c0.35646-0.34222 0.83003-0.53312 1.3225-0.53312 0.4925 0 0.966 0.19091 1.3225 0.53312z" clip-rule="evenodd" fill="#BA7D1C" fill-rule="evenodd"/>
</svg>
