<svg width="60" height="60" viewBox="0 0 60 60" fill="none" xmlns="http://www.w3.org/2000/svg">
<path d="M30 0C38.151 0 39.168 0.0299998 42.366 0.18C45.561 0.33 47.736 0.831 49.65 1.575C51.63 2.337 53.298 3.369 54.966 5.034C56.4915 6.53369 57.6719 8.34777 58.425 10.35C59.166 12.261 59.67 14.439 59.82 17.634C59.961 20.832 60 21.849 60 30C60 38.151 59.97 39.168 59.82 42.366C59.67 45.561 59.166 47.736 58.425 49.65C57.674 51.6533 56.4934 53.4679 54.966 54.966C53.4659 56.491 51.6519 57.6713 49.65 58.425C47.739 59.166 45.561 59.67 42.366 59.82C39.168 59.961 38.151 60 30 60C21.849 60 20.832 59.97 17.634 59.82C14.439 59.67 12.264 59.166 10.35 58.425C8.34698 57.6734 6.53258 56.4928 5.034 54.966C3.50822 53.4666 2.32779 51.6524 1.575 49.65C0.831 47.739 0.33 45.561 0.18 42.366C0.0389998 39.168 0 38.151 0 30C0 21.849 0.0299998 20.832 0.18 17.634C0.33 14.436 0.831 12.264 1.575 10.35C2.32571 8.34654 3.50641 6.53196 5.034 5.034C6.53301 3.50769 8.34729 2.32719 10.35 1.575C12.264 0.831 14.436 0.33 17.634 0.18C20.832 0.0389998 21.849 0 30 0ZM30 15C26.0218 15 22.2064 16.5804 19.3934 19.3934C16.5804 22.2064 15 26.0218 15 30C15 33.9782 16.5804 37.7936 19.3934 40.6066C22.2064 43.4196 26.0218 45 30 45C33.9782 45 37.7936 43.4196 40.6066 40.6066C43.4196 37.7936 45 33.9782 45 30C45 26.0218 43.4196 22.2064 40.6066 19.3934C37.7936 16.5804 33.9782 15 30 15V15ZM49.5 14.25C49.5 13.2554 49.1049 12.3016 48.4017 11.5983C47.6984 10.8951 46.7446 10.5 45.75 10.5C44.7554 10.5 43.8016 10.8951 43.0983 11.5983C42.3951 12.3016 42 13.2554 42 14.25C42 15.2446 42.3951 16.1984 43.0983 16.9017C43.8016 17.6049 44.7554 18 45.75 18C46.7446 18 47.6984 17.6049 48.4017 16.9017C49.1049 16.1984 49.5 15.2446 49.5 14.25ZM30 21C32.3869 21 34.6761 21.9482 36.364 23.636C38.0518 25.3239 39 27.6131 39 30C39 32.3869 38.0518 34.6761 36.364 36.364C34.6761 38.0518 32.3869 39 30 39C27.6131 39 25.3239 38.0518 23.636 36.364C21.9482 34.6761 21 32.3869 21 30C21 27.6131 21.9482 25.3239 23.636 23.636C25.3239 21.9482 27.6131 21 30 21V21Z" fill="#FBB51F"/>
</svg>
