<svg width="84" height="84" viewBox="0 0 84 84" fill="none" xmlns="http://www.w3.org/2000/svg">
<path fill-rule="evenodd" clip-rule="evenodd" d="M2.8614 7.28926C4.17276 2 4.17287 2 4.17287 2H47.4516C47.4516 2 60.6435 4.74637 67.1237 9.93388C74.6918 15.9924 80.2384 31.0909 80.2384 31.0909V57.5372V77.3719C80.2384 77.3719 75.5565 79.4323 72.3696 80.0165C57.9434 82.6612 50.0745 82.6612 34.3367 80.0165C24.3855 78.3443 16.649 73.9212 12.0416 69.438C7.96474 65.4711 5.26567 57.5372 4.17277 50.9256C1.54982 35.0579 1.55003 12.5785 2.8614 7.28926ZM30.4024 7.28926H10.7302L8.1073 12.5785C8.1073 12.5785 6.26036 17.3415 5.48435 20.5124C2.40711 33.0864 5.48435 45.6364 8.1073 53.5702C10.7303 61.5041 15.976 66.7934 18.5991 69.438C21.2222 72.0826 28.0281 73.2422 34.3368 74.7273C34.3368 74.7273 55.5302 79.4007 68.4352 76.0496C71.572 75.235 76.304 73.405 76.304 73.405C76.304 73.405 76.1337 63.753 76.3041 57.5372C76.5593 48.2313 76.304 37.7025 76.304 33.7355C76.304 29.7686 75.3999 27.8155 73.6811 24.4793C71.8371 20.9003 70.1384 19.1963 67.1237 16.5455C63.1496 13.051 55.3204 9.93388 55.3204 9.93388C55.3204 9.93388 52.686 13.8346 51.386 16.5455C47.3175 25.0291 47.4516 40.3471 47.4516 40.3471C47.4516 40.3471 47.4516 50.9256 47.4516 53.5702C47.4516 56.2149 43.5171 61.5041 43.5171 61.5041C43.5171 61.5041 39.5827 56.2149 39.5827 53.5702V40.3471C39.5827 40.3471 40.5244 25.1796 36.9598 16.5455C36.0795 14.4134 35.684 13.1239 34.3368 11.2562C33.0588 9.48435 30.4024 7.28926 30.4024 7.28926Z" fill="#F9ED32"/>
<path d="M10.7302 7.28926H30.4024C30.4024 7.28926 33.0588 9.48435 34.3368 11.2562C35.684 13.1239 36.0795 14.4134 36.9598 16.5455C40.5244 25.1796 39.5827 40.3471 39.5827 40.3471V53.5702C39.5827 56.2149 43.5171 61.5041 43.5171 61.5041C43.5171 61.5041 47.4516 56.2149 47.4516 53.5702V40.3471C47.4516 40.3471 47.3175 25.0291 51.386 16.5455C52.686 13.8346 55.3204 9.93388 55.3204 9.93388C55.3204 9.93388 63.1496 13.051 67.1237 16.5455C70.1384 19.1963 71.8371 20.9003 73.6811 24.4793C75.3999 27.8155 76.304 29.7686 76.304 33.7355C76.304 37.7025 76.5593 48.2313 76.3041 57.5372C76.1337 63.753 76.304 73.405 76.304 73.405C76.304 73.405 71.572 75.235 68.4352 76.0496C55.5302 79.4007 34.3368 74.7273 34.3368 74.7273C28.0281 73.2422 21.2222 72.0826 18.5991 69.438C15.976 66.7934 10.7303 61.5041 8.1073 53.5702C5.48435 45.6364 2.40711 33.0864 5.48435 20.5124C6.26036 17.3415 8.1073 12.5785 8.1073 12.5785L10.7302 7.28926Z" fill="#F9ED32"/>
<path d="M47.4516 53.5702C47.4516 56.2149 43.5171 61.5041 43.5171 61.5041C43.5171 61.5041 39.5827 56.2149 39.5827 53.5702V40.3471C39.5827 40.3471 40.5244 25.1796 36.9598 16.5455C36.0795 14.4134 35.684 13.1239 34.3368 11.2562C33.0588 9.48435 30.4024 7.28926 30.4024 7.28926H10.7302L8.1073 12.5785C8.1073 12.5785 6.26036 17.3415 5.48435 20.5124C2.40711 33.0864 5.48435 45.6364 8.1073 53.5702C10.7303 61.5041 15.976 66.7934 18.5991 69.438C21.2222 72.0826 28.0281 73.2422 34.3368 74.7273C34.3368 74.7273 55.5302 79.4007 68.4352 76.0496C71.572 75.235 76.304 73.405 76.304 73.405C76.304 73.405 76.1337 63.753 76.3041 57.5372C76.5593 48.2313 76.304 37.7025 76.304 33.7355C76.304 29.7686 75.3999 27.8155 73.6811 24.4793C71.8371 20.9003 70.1384 19.1963 67.1237 16.5455C63.1496 13.051 55.3204 9.93388 55.3204 9.93388C55.3204 9.93388 52.686 13.8346 51.386 16.5455C47.3175 25.0291 47.4516 40.3471 47.4516 40.3471M47.4516 53.5702C47.4516 50.9256 47.4516 40.3471 47.4516 40.3471M47.4516 53.5702V40.3471M2.8614 7.28926C4.17276 2 4.17287 2 4.17287 2H47.4516C47.4516 2 60.6435 4.74637 67.1237 9.93388C74.6918 15.9924 80.2384 31.0909 80.2384 31.0909V57.5372V77.3719C80.2384 77.3719 75.5565 79.4323 72.3696 80.0165C57.9434 82.6612 50.0745 82.6612 34.3367 80.0165C24.3855 78.3443 16.649 73.9212 12.0416 69.438C7.96474 65.4711 5.26567 57.5372 4.17277 50.9256C1.54982 35.0579 1.55003 12.5785 2.8614 7.28926Z" stroke="black"/>
<path fill-rule="evenodd" clip-rule="evenodd" d="M2.88083 7.28926C4.22172 2 4.22184 2 4.22184 2H48.4749C48.4749 2 61.9639 4.74638 68.59 9.93388C76.3285 15.9924 82 31.0909 82 31.0909V57.5372V77.3719C82 77.3719 77.2127 79.4323 73.954 80.0165C59.203 82.6612 51.1569 82.6612 35.0648 80.0165C24.8896 78.3443 16.9789 73.9212 12.2677 69.438C8.09907 65.4711 5.33923 57.5372 4.22173 50.9256C1.53973 35.0579 1.53994 12.5785 2.88083 7.28926ZM31.0419 7.28926H10.9268L8.24484 12.5785C8.24484 12.5785 6.35632 17.3415 5.56284 20.5124C2.41631 33.0864 5.56284 45.6364 8.24484 53.5703C10.9269 61.5041 16.2908 66.7934 18.9729 69.438C21.655 72.0826 28.6141 73.2422 35.0649 74.7273C35.0649 74.7273 56.7355 79.4007 69.931 76.0496C73.1384 75.235 77.977 73.405 77.977 73.405C77.977 73.405 77.8028 63.7531 77.9771 57.5372C78.238 48.2313 77.977 37.7025 77.977 33.7355C77.977 29.7686 77.0525 27.8155 75.295 24.4793C73.4095 20.9003 71.6726 19.1963 68.59 16.5455C64.5264 13.051 56.5209 9.93388 56.5209 9.93388C56.5209 9.93388 53.8272 13.8346 52.4979 16.5455C48.3379 25.0291 48.4749 40.3471 48.4749 40.3471C48.4749 40.3471 48.4749 50.9256 48.4749 53.5703C48.4749 56.2149 44.4519 61.5041 44.4519 61.5041C44.4519 61.5041 40.4289 56.2149 40.4289 53.5703V40.3471C40.4289 40.3471 41.3918 25.1796 37.7469 16.5455C36.8469 14.4134 36.4424 13.1239 35.0649 11.2562C33.7581 9.48435 31.0419 7.28926 31.0419 7.28926Z" fill="black"/>
<path d="M48.4749 53.5703C48.4749 56.2149 44.4519 61.5041 44.4519 61.5041C44.4519 61.5041 40.4289 56.2149 40.4289 53.5703V40.3471C40.4289 40.3471 41.3918 25.1796 37.7469 16.5455C36.8469 14.4134 36.4424 13.1239 35.0649 11.2562C33.7581 9.48435 31.0419 7.28926 31.0419 7.28926H10.9268L8.24484 12.5785C8.24484 12.5785 6.35632 17.3415 5.56284 20.5124C2.41631 33.0864 5.56284 45.6364 8.24484 53.5703C10.9269 61.5041 16.2908 66.7934 18.9729 69.438C21.655 72.0826 28.6141 73.2422 35.0649 74.7273C35.0649 74.7273 56.7355 79.4007 69.931 76.0496C73.1384 75.235 77.977 73.405 77.977 73.405C77.977 73.405 77.8028 63.7531 77.9771 57.5372C78.238 48.2313 77.977 37.7025 77.977 33.7355C77.977 29.7686 77.0525 27.8155 75.295 24.4793C73.4095 20.9003 71.6726 19.1963 68.59 16.5455C64.5264 13.051 56.5209 9.93388 56.5209 9.93388C56.5209 9.93388 53.8272 13.8346 52.4979 16.5455C48.3379 25.0291 48.4749 40.3471 48.4749 40.3471M48.4749 53.5703C48.4749 50.9256 48.4749 40.3471 48.4749 40.3471M48.4749 53.5703V40.3471M2.88083 7.28926C4.22172 2 4.22184 2 4.22184 2H48.4749C48.4749 2 61.9639 4.74638 68.59 9.93388C76.3285 15.9924 82 31.0909 82 31.0909V57.5372V77.3719C82 77.3719 77.2127 79.4323 73.954 80.0165C59.203 82.6612 51.1569 82.6612 35.0648 80.0165C24.8896 78.3443 16.9789 73.9212 12.2677 69.438C8.09907 65.4711 5.33923 57.5372 4.22173 50.9256C1.53973 35.0579 1.53994 12.5785 2.88083 7.28926Z" stroke="black" stroke-width="3"/>
</svg>
