<?xml version="1.0" encoding="UTF-8"?>
<svg viewBox="0 0 20 20" xmlns="http://www.w3.org/2000/svg">
<path d="m6.8136 0.010007c-0.89965 0.13448-1.6868 0.92106-2.1332 2.1314-0.69377 1.8765-0.3737 4.2785 0.74395 5.5748 0.38754 0.4488 0.88408 0.74747 1.3616 0.81628 0.18685 0.02815 0.53633 0.01251 0.70242-0.03128 0.31142-0.07975 0.609-0.24394 0.88754-0.4832 0.31488-0.27366 0.53461-0.55357 0.76471-0.97891 0.31661-0.58172 0.49827-1.1713 0.60727-1.9625 0.02595-0.18139 0.03287-0.3409 0.03287-0.79752 0-0.59579-0.01384-0.76624-0.09689-1.2041-0.23183-1.2276-0.8045-2.2362-1.5536-2.735-0.18339-0.12197-0.48443-0.25489-0.67647-0.29868-0.16609-0.03753-0.48962-0.053168-0.64014-0.031275z" fill="#BA7D1C"/>
<path d="m12.667 0.2352c-0.5277 0.090698-0.9879 0.38-1.41 0.8851-0.1523 0.18296-0.2682 0.35966-0.4187 0.6427-0.3063 0.57078-0.4845 1.1603-0.5917 1.9531-0.045 0.3237-0.045 1.2229-0.0018 1.5481 0.1246 0.92262 0.3703 1.6451 0.7682 2.2659 0.1678 0.25959 0.346 0.4707 0.5744 0.67398 0.4273 0.38313 0.8581 0.56296 1.3495 0.56296 0.2958 0 0.4896-0.04222 0.7682-0.16576 0.7768-0.34559 1.4256-1.2338 1.7508-2.4004 0.1782-0.64427 0.2578-1.387 0.218-2.0423-0.0605-0.98361-0.2751-1.7764-0.6765-2.4895-0.4307-0.76625-1.0138-1.2588-1.666-1.4105-0.1817-0.042221-0.4931-0.053167-0.6644-0.023456z" fill="#BA7D1C"/>
<path d="m17.886 5.5144c-0.4948 0.06412-0.981 0.33934-1.4049 0.79596-1.3685 1.4746-1.6955 4.2331-0.6713 5.6468 0.1263 0.1751 0.4049 0.4316 0.571 0.5285 0.5173 0.3018 1.147 0.2627 1.7526-0.1094 0.2041-0.1251 0.5571-0.441 0.7266-0.649 0.635-0.7788 1.0277-1.8093 1.1194-2.9368 0.0934-1.1697-0.2249-2.255-0.8287-2.8273-0.308-0.29086-0.6263-0.43317-1.0156-0.4535-0.0848-0.00469-0.1972-0.00312-0.2491 0.00469z" fill="#BA7D1C"/>
<path d="m1.5417 5.7787c-0.71972 0.16106-1.2647 0.86319-1.4689 1.9015-0.013841 0.06881-0.036332 0.24082-0.050173 0.38312-0.18166 1.8359 0.75087 3.8531 2.0415 4.4176 0.25433 0.1126 0.39101 0.1408 0.67474 0.1408 0.20589 0 0.26125-0.0063 0.37198-0.036 0.7301-0.2064 1.2595-0.9617 1.4291-2.036 0.06056-0.391 0.05191-1.0696-0.02076-1.5247-0.17647-1.115-0.69896-2.1361-1.3996-2.7428-0.31834-0.27366-0.64879-0.44568-0.98789-0.50979-0.1609-0.03127-0.43426-0.02815-0.58997 0.00626z" fill="#BA7D1C"/>
<path d="m9.6129 9.316c-0.91695 0.04691-1.6868 0.32839-2.0727 0.75844-0.12803 0.1423-0.20935 0.294-0.31142 0.5864-0.28374 0.8132-0.3962 1.1009-0.54498 1.3839-0.20589 0.3941-0.43253 0.6865-0.73876 0.9539-0.43079 0.3738-0.75605 0.5239-1.5536 0.7178-0.56056 0.136-0.88236 0.2439-1.1004 0.3675-0.65225 0.3706-1.1661 0.982-1.4308 1.7045-0.13494 0.3643-0.18858 0.6615-0.18858 1.0242 0 0.3613 0.07094 0.6506 0.25606 1.0274 0.37024 0.76 1.2128 1.5888 1.9568 1.9266 0.34602 0.1564 0.4827 0.1767 1.0502 0.1517 0.55709-0.0235 0.80104-0.061 1-0.1517 0.12284-0.0563 0.19204-0.1298 0.29412-0.3065 0.16609-0.2956 0.43252-0.4942 0.70588-0.5286 0.32353-0.0406 0.62976 0.1142 0.98616 0.4989 0.2128 0.2314 0.35813 0.3221 0.64014 0.405 0.69896 0.2049 2.0225 0.1517 2.5865-0.1016 0.1609-0.0735 0.263-0.158 0.4429-0.366 0.3218-0.3721 0.4274-0.4409 0.68-0.4394 0.3183 0.0016 0.5657 0.1595 0.9377 0.6005 0.0986 0.1173 0.2093 0.2346 0.2439 0.2627 0.0969 0.0719 0.2613 0.1376 0.4412 0.1767 0.1488 0.0313 0.2007 0.0329 0.7145 0.0313 0.4308-0.0016 0.5831-0.0078 0.6834-0.0266 0.5623-0.1079 1.436-0.8038 1.9551-1.5575 0.2145-0.3096 0.3892-0.6896 0.4584-0.993 0.0813-0.3503 0.0364-0.9852-0.102-1.4934-0.2077-0.7553-0.6246-1.3089-1.18-1.5669-0.2699-0.1251-0.4204-0.1657-1.0536-0.2861-0.744-0.1408-1.045-0.2721-1.4377-0.624-0.3616-0.3237-0.5865-0.7615-0.8547-1.6591-0.2163-0.7272-0.2785-0.9023-0.3979-1.1259-0.1004-0.1877-0.1782-0.2831-0.3772-0.4676-0.256-0.23458-0.5242-0.40972-0.8616-0.5614-0.5744-0.25959-1.1349-0.3581-1.827-0.32214z" fill="#BA7D1C"/>
</svg>
