<?xml version="1.0" encoding="UTF-8"?>
<svg fill="none" viewBox="0 0 21 20" xmlns="http://www.w3.org/2000/svg">
<path d="m4.0399 13c1.6789 0 3.0399-1.3431 3.0399-3 0-1.6568-1.361-3-3.0399-3-1.6789 0-3.0399 1.3432-3.0399 3 0 1.6569 1.361 3 3.0399 3z" stroke="#A01F02" stroke-linecap="round" stroke-linejoin="round" stroke-width="2"/>
<path d="m16.2 7c1.6789 0 3.0399-1.3432 3.0399-3s-1.361-3-3.0399-3-3.0399 1.3432-3.0399 3 1.361 3 3.0399 3z" stroke="#A01F02" stroke-linecap="round" stroke-linejoin="round" stroke-width="2"/>
<path d="m16.2 19c1.6789 0 3.0399-1.3431 3.0399-3s-1.361-3-3.0399-3-3.0399 1.3431-3.0399 3 1.361 3 3.0399 3z" stroke="#A01F02" stroke-linecap="round" stroke-linejoin="round" stroke-width="2"/>
<path d="m6.7759 8.7 6.6878-3.4" stroke="#A01F02" stroke-linecap="round" stroke-linejoin="round" stroke-width="2"/>
<path d="m6.7759 11.3 6.6878 3.4" stroke="#A01F02" stroke-linecap="round" stroke-linejoin="round" stroke-width="2"/>
</svg>
