<?xml version="1.0" encoding="UTF-8"?>
<svg fill="none" viewBox="0 0 26 18" xmlns="http://www.w3.org/2000/svg">
<path d="m0 9c1.9722-5.268 6.8398-9 12.54-9 5.6998 0 10.568 3.732 12.54 9-1.9721 5.268-6.8398 9-12.54 9-5.6999 0-10.568-3.732-12.54-9zm22.594-1e-5c-1.881-4.044-5.7341-6.6-10.055-6.6-4.3204 0-8.1735 2.556-10.054 6.6 1.881 4.044 5.7226 6.6 10.054 6.6 4.3319 0 8.1736-2.556 10.055-6.6zm-10.054-3c1.5731 0 2.8499 1.344 2.8499 3 0 1.656-1.2768 3-2.8499 3-1.5732 0-2.8499-1.344-2.8499-3 0-1.656 1.2767-3 2.8499-3zm-5.1299 3c0-2.976 2.3027-5.4 5.1299-5.4 2.8271 0 5.1298 2.424 5.1298 5.4s-2.3027 5.4-5.1298 5.4c-2.8272 0-5.1299-2.424-5.1299-5.4z" clip-rule="evenodd" fill="#A01F02" fill-rule="evenodd"/>
</svg>
